REM DIRINDEX 1\8,1\2\11,1\3\12,1\3\14,1\5\15,1\5\16,1\6\17,1\6\18,1\4\19,1\4\20,1\4\21,1\4\22,1\7\23,1\7\24,1\7\25,1\2\9\26,1\2\9\27,1\2\10\28,1\2\10\29,1\2\10\30,1\2\10\31,1\2\10\32,1\3\13\33,1\3\13\34,1\3\13\35
REM DIRNAME cjc123,folder01,folder02,folder03,folder04,folder05,folder06,folder07,folder08,folder09,folder10,folder11,folder12,folder13,folder14,folder15,folder16,folder17,folder18,folder19,folder20,folder21,folder22,folder23,folder24,folder25,folder26,folder27,folder28,folder29,folder30,folder31,folder32,folder33,folder34
TITLE ""
FILE "161 161_—á•¶UNIT7_SET3.mp3" MP3
  TRACK 01 AUDIO
    TITLE "22:cjc123_4383"
    INDEX 01 00:00:00
  TRACK 02 AUDIO
    TITLE "0:"
    INDEX 01 00:02:47
  TRACK 03 AUDIO
    TITLE "19:cjc123_4384"
    INDEX 01 00:03:27
  TRACK 04 AUDIO
    TITLE "0:"
    INDEX 01 00:09:14
  TRACK 05 AUDIO
    TITLE "20:cjc123_4385"
    INDEX 01 00:09:45
  TRACK 06 AUDIO
    TITLE "0:"
    INDEX 01 00:14:47
  TRACK 07 AUDIO
    TITLE "21:cjc123_4386"
    INDEX 01 00:15:15
  TRACK 08 AUDIO
    TITLE "0:"
    INDEX 01 00:20:73
  TRACK 09 AUDIO
    TITLE "19:cjc123_4387"
    INDEX 01 00:21:53
  TRACK 10 AUDIO
    TITLE "0:"
    INDEX 01 00:25:46
  TRACK 11 AUDIO
    TITLE "20:cjc123_4388"
    INDEX 01 00:26:03
  TRACK 12 AUDIO
    TITLE "0:"
    INDEX 01 00:30:10
  TRACK 13 AUDIO
    TITLE "21:cjc123_4389"
    INDEX 01 00:30:38
  TRACK 14 AUDIO
    TITLE "0:"
    INDEX 01 00:34:28
  TRACK 15 AUDIO
    TITLE "19:cjc123_4390"
    INDEX 01 00:35:02
  TRACK 16 AUDIO
    TITLE "0:"
    INDEX 01 00:39:35
  TRACK 17 AUDIO
    TITLE "20:cjc123_4391"
    INDEX 01 00:39:68
  TRACK 18 AUDIO
    TITLE "0:"
    INDEX 01 00:44:26
  TRACK 19 AUDIO
    TITLE "21:cjc123_4392"
    INDEX 01 00:44:56
  TRACK 20 AUDIO
    TITLE "0:"
    INDEX 01 00:49:14
  TRACK 21 AUDIO
    TITLE "19:cjc123_4393"
    INDEX 01 00:49:63
  TRACK 22 AUDIO
    TITLE "0:"
    INDEX 01 00:53:74
  TRACK 23 AUDIO
    TITLE "20:cjc123_4394"
    INDEX 01 00:54:32
  TRACK 24 AUDIO
    TITLE "0:"
    INDEX 01 00:58:40
  TRACK 25 AUDIO
    TITLE "21:cjc123_4395"
    INDEX 01 00:58:71
  TRACK 26 AUDIO
    TITLE "0:"
    INDEX 01 01:03:08
  TRACK 27 AUDIO
    TITLE "19:cjc123_4396"
    INDEX 01 01:03:61
  TRACK 28 AUDIO
    TITLE "0:"
    INDEX 01 01:07:02
  TRACK 29 AUDIO
    TITLE "20:cjc123_4397"
    INDEX 01 01:07:37
  TRACK 30 AUDIO
    TITLE "0:"
    INDEX 01 01:10:16
  TRACK 31 AUDIO
    TITLE "21:cjc123_4398"
    INDEX 01 01:10:49
  TRACK 32 AUDIO
    TITLE "0:"
    INDEX 01 01:13:65
  TRACK 33 AUDIO
    TITLE "19:cjc123_4399"
    INDEX 01 01:14:57
  TRACK 34 AUDIO
    TITLE "0:"
    INDEX 01 01:19:28
  TRACK 35 AUDIO
    TITLE "20:cjc123_4400"
    INDEX 01 01:19:42
  TRACK 36 AUDIO
    TITLE "0:"
    INDEX 01 01:23:22
  TRACK 37 AUDIO
    TITLE "21:cjc123_4401"
    INDEX 01 01:23:52
  TRACK 38 AUDIO
    TITLE "0:"
    INDEX 01 01:28:31
  TRACK 39 AUDIO
    TITLE "19:cjc123_4402"
    INDEX 01 01:28:74
  TRACK 40 AUDIO
    TITLE "0:"
    INDEX 01 01:35:14
  TRACK 41 AUDIO
    TITLE "20:cjc123_4403"
    INDEX 01 01:35:57
  TRACK 42 AUDIO
    TITLE "0:"
    INDEX 01 01:43:62
  TRACK 43 AUDIO
    TITLE "21:cjc123_4404"
    INDEX 01 01:44:17
  TRACK 44 AUDIO
    TITLE "0:"
    INDEX 01 01:50:31
  TRACK 45 AUDIO
    TITLE "19:cjc123_4405"
    INDEX 01 01:51:05
  TRACK 46 AUDIO
    TITLE "0:"
    INDEX 01 01:54:58
  TRACK 47 AUDIO
    TITLE "20:cjc123_4406"
    INDEX 01 01:55:15
  TRACK 48 AUDIO
    TITLE "0:"
    INDEX 01 01:58:11
  TRACK 49 AUDIO
    TITLE "21:cjc123_4407"
    INDEX 01 01:58:42
  TRACK 50 AUDIO
    TITLE "0:"
    INDEX 01 02:02:22
  TRACK 51 AUDIO
    TITLE "19:cjc123_4408"
    INDEX 01 02:03:06
  TRACK 52 AUDIO
    TITLE "0:"
    INDEX 01 02:07:29
  TRACK 53 AUDIO
    TITLE "20:cjc123_4409"
    INDEX 01 02:07:53
  TRACK 54 AUDIO
    TITLE "0:"
    INDEX 01 02:12:29
  TRACK 55 AUDIO
    TITLE "21:cjc123_4410"
    INDEX 01 02:12:58
  TRACK 56 AUDIO
    TITLE "0:"
    INDEX 01 02:17:06
  TRACK 57 AUDIO
    TITLE "19:cjc123_4411"
    INDEX 01 02:17:55
  TRACK 58 AUDIO
    TITLE "0:"
    INDEX 01 02:22:68
  TRACK 59 AUDIO
    TITLE "20:cjc123_4412"
    INDEX 01 02:23:25
  TRACK 60 AUDIO
    TITLE "0:"
    INDEX 01 02:28:67
  TRACK 61 AUDIO
    TITLE "21:cjc123_4413"
    INDEX 01 02:29:23
  TRACK 62 AUDIO
    TITLE "0:"
    INDEX 01 02:34:38
  TRACK 63 AUDIO
    TITLE "19:cjc123_4414"
    INDEX 01 02:35:12
  TRACK 64 AUDIO
    TITLE "0:"
    INDEX 01 02:39:20
  TRACK 65 AUDIO
    TITLE "20:cjc123_4415"
    INDEX 01 02:39:55
  TRACK 66 AUDIO
    TITLE "0:"
    INDEX 01 02:44:38
  TRACK 67 AUDIO
    TITLE "21:cjc123_4416"
    INDEX 01 02:44:70
  TRACK 68 AUDIO
    TITLE "0:"
    INDEX 01 02:49:02
  TRACK 69 AUDIO
    TITLE "19:cjc123_4417"
    INDEX 01 02:50:02
  TRACK 70 AUDIO
    TITLE "0:"
    INDEX 01 02:55:50
  TRACK 71 AUDIO
    TITLE "20:cjc123_4418"
    INDEX 01 02:56:14
  TRACK 72 AUDIO
    TITLE "0:"
    INDEX 01 03:02:52
  TRACK 73 AUDIO
    TITLE "21:cjc123_4419"
    INDEX 01 03:03:08
  TRACK 74 AUDIO
    TITLE "0:"
    INDEX 01 03:08:59
  TRACK 75 AUDIO
    TITLE "19:cjc123_4420"
    INDEX 01 03:09:58
  TRACK 76 AUDIO
    TITLE "0:"
    INDEX 01 03:15:47
  TRACK 77 AUDIO
    TITLE "20:cjc123_4421"
    INDEX 01 03:16:05
  TRACK 78 AUDIO
    TITLE "0:"
    INDEX 01 03:22:53
  TRACK 79 AUDIO
    TITLE "21:cjc123_4422"
    INDEX 01 03:23:05
  TRACK 80 AUDIO
    TITLE "0:"
    INDEX 01 03:28:71
  TRACK 81 AUDIO
    TITLE "19:cjc123_4423"
    INDEX 01 03:29:43
  TRACK 82 AUDIO
    TITLE "0:"
    INDEX 01 03:33:41
  TRACK 83 AUDIO
    TITLE "20:cjc123_4424"
    INDEX 01 03:33:68
  TRACK 84 AUDIO
    TITLE "0:"
    INDEX 01 03:39:00
  TRACK 85 AUDIO
    TITLE "21:cjc123_4425"
    INDEX 01 03:39:28
  TRACK 86 AUDIO
    TITLE "0:"
    INDEX 01 03:43:24
  TRACK 87 AUDIO
    TITLE "19:cjc123_4426"
    INDEX 01 03:43:71
  TRACK 88 AUDIO
    TITLE "0:"
    INDEX 01 03:46:38
  TRACK 89 AUDIO
    TITLE "20:cjc123_4427"
    INDEX 01 03:46:71
  TRACK 90 AUDIO
    TITLE "0:"
    INDEX 01 03:49:71
  TRACK 91 AUDIO
    TITLE "21:cjc123_4428"
    INDEX 01 03:50:26
  TRACK 92 AUDIO
    TITLE "0:"
    INDEX 01 03:52:68
